<svg xmlns="http://www.w3.org/2000/svg" width="480" height="300" viewBox="0 0 480 300" role="img" aria-label="ShopVista E-commerce project cover">
  <defs>
    <linearGradient id="bg" x1="0" y1="1" x2="1" y2="0">
      <stop offset="0" stop-color="#020817"/>
      <stop offset="1" stop-color="#061426"/>
    </linearGradient>
    <linearGradient id="accent" x1="0" y1="0" x2="1" y2="0">
      <stop offset="0" stop-color="#12E6F3"/>
      <stop offset="1" stop-color="#22F3FF"/>
    </linearGradient>
  </defs>
  <rect width="480" height="300" fill="url(#bg)"/>
  <circle cx="380" cy="240" r="110" fill="#12E6F3" opacity="0.07"/>
  <g stroke="#12E6F3" opacity="0.16" stroke-width="1">
    <line x1="0" y1="100" x2="480" y2="100"/>
    <line x1="0" y1="200" x2="480" y2="200"/>
    <line x1="160" y1="0" x2="160" y2="300"/>
    <line x1="320" y1="0" x2="320" y2="300"/>
  </g>
  <g transform="translate(80,78)">
    <rect x="0" y="0" width="130" height="96" rx="12" fill="#061426" stroke="url(#accent)" stroke-width="1.5" opacity="0.9"/>
    <rect x="18" y="18" width="94" height="46" rx="6" fill="#12E6F3" opacity="0.1"/>
    <rect x="18" y="74" width="94" height="7" rx="3.5" fill="#22F3FF" opacity="0.4"/>
    <circle cx="240" cy="80" r="34" fill="none" stroke="#12E6F3" stroke-width="1.5"/>
    <rect x="222" y="66" width="36" height="8" rx="4" fill="#12E6F3" opacity="0.5"/>
  </g>
  <rect x="330" y="180" width="90" height="26" rx="13" fill="#12E6F3" opacity="0.12"/>
  <text x="375" y="198" font-family="Arial, sans-serif" font-size="12" fill="#22F3FF" text-anchor="middle" font-weight="bold">SHOPVISTA</text>
</svg>